<svg width="30" height="21" viewBox="0 0 30 21" fill="none" xmlns="http://www.w3.org/2000/svg">
<path d="M1.66667 21C1.19444 21 0.798889 20.832 0.48 20.496C0.16 20.1612 0 19.7458 0 19.25C0 18.7542 0.16 18.3388 0.48 18.004C0.798889 17.668 1.19444 17.5 1.66667 17.5H28.3333C28.8056 17.5 29.2011 17.668 29.52 18.004C29.84 18.3388 30 18.7542 30 19.25C30 19.7458 29.84 20.1612 29.52 20.496C29.2011 20.832 28.8056 21 28.3333 21H1.66667ZM1.66667 12.25C1.19444 12.25 0.798889 12.082 0.48 11.746C0.16 11.4112 0 10.9958 0 10.5C0 10.0042 0.16 9.58825 0.48 9.25225C0.798889 8.91742 1.19444 8.75 1.66667 8.75H28.3333C28.8056 8.75 29.2011 8.91742 29.52 9.25225C29.84 9.58825 30 10.0042 30 10.5C30 10.9958 29.84 11.4112 29.52 11.746C29.2011 12.082 28.8056 12.25 28.3333 12.25H1.66667ZM1.66667 3.5C1.19444 3.5 0.798889 3.33258 0.48 2.99775C0.16 2.66175 0 2.24583 0 1.75C0 1.25417 0.16 0.83825 0.48 0.50225C0.798889 0.167417 1.19444 0 1.66667 0H28.3333C28.8056 0 29.2011 0.167417 29.52 0.50225C29.84 0.83825 30 1.25417 30 1.75C30 2.24583 29.84 2.66175 29.52 2.99775C29.2011 3.33258 28.8056 3.5 28.3333 3.5H1.66667Z" fill="black"/>
</svg>
