<svg width="31" height="35" viewBox="0 0 31 35" fill="none" xmlns="http://www.w3.org/2000/svg">
<path d="M25.8333 24.2489C24.5244 24.2489 23.3533 24.7656 22.4578 25.575L10.1783 18.4278C10.2644 18.0317 10.3333 17.6356 10.3333 17.2222C10.3333 16.8089 10.2644 16.4128 10.1783 16.0167L22.32 8.93833C23.25 9.79944 24.4728 10.3333 25.8333 10.3333C28.6922 10.3333 31 8.02556 31 5.16667C31 2.30778 28.6922 0 25.8333 0C22.9744 0 20.6667 2.30778 20.6667 5.16667C20.6667 5.58 20.7356 5.97611 20.8217 6.37222L8.68 13.4506C7.75 12.5894 6.52722 12.0556 5.16667 12.0556C2.30778 12.0556 0 14.3633 0 17.2222C0 20.0811 2.30778 22.3889 5.16667 22.3889C6.52722 22.3889 7.75 21.855 8.68 20.9939L20.9422 28.1583C20.8561 28.52 20.8044 28.8989 20.8044 29.2778C20.8044 32.0506 23.0606 34.3067 25.8333 34.3067C28.6061 34.3067 30.8622 32.0506 30.8622 29.2778C30.8622 26.505 28.6061 24.2489 25.8333 24.2489Z" fill="black"/>
</svg>
