<svg width="35" height="32" viewBox="0 0 35 32" fill="none" xmlns="http://www.w3.org/2000/svg">
<path d="M13.0859 5.71131e-07C10.8851 -0.000655836 8.71961 0.56451 6.79002 1.64318C4.86044 2.72185 3.2291 4.27915 2.04703 6.17092C0.864963 8.06269 0.170375 10.2278 0.0275706 12.4658C-0.115234 14.7037 0.298359 16.9422 1.23006 18.9741C0.791034 20.8258 0.394971 22.6879 0.0422063 24.5587C-0.0114774 24.841 0.00309313 25.1323 0.0846586 25.4075C0.166224 25.6827 0.31233 25.9335 0.51035 26.1382C0.708369 26.343 0.952343 26.4955 1.22118 26.5827C1.49003 26.6698 1.77565 26.6889 2.05336 26.6383C3.14005 26.4428 5.50355 25.9985 7.69786 25.483C9.4764 26.3003 11.4118 26.7018 13.3624 26.6582C15.3129 26.6147 17.2292 26.1271 18.9709 25.2312C20.7125 24.3353 22.2355 23.0538 23.4283 21.4805C24.621 19.9072 25.4534 18.082 25.8643 16.1385C26.2752 14.195 26.2543 12.1825 25.8032 10.2482C25.3521 8.31404 24.4821 6.50715 23.257 4.95989C22.0319 3.41263 20.4827 2.16419 18.7228 1.30599C16.9629 0.447792 15.037 0.00156911 13.0859 5.71131e-07V5.71131e-07ZM13.0197 28.4389C15.4365 30.7286 18.6155 31.9989 21.9155 31.9937C23.7728 31.9961 25.6092 31.5943 27.3018 30.8153C29.1211 31.249 31.1149 31.6827 32.3829 31.9529C32.74 32.0292 33.1101 32.0126 33.4591 31.9046C33.8082 31.7966 34.1249 31.6006 34.3799 31.3349C34.635 31.0691 34.8202 30.7422 34.9184 30.3842C35.0166 30.0262 35.0247 29.6487 34.9418 29.2867C34.6592 28.0372 34.2127 26.0962 33.7714 24.3046C34.5466 22.6124 34.9645 20.7731 34.9978 18.9059C35.0312 17.0387 34.6793 15.1852 33.965 13.4654C33.2507 11.7456 32.1899 10.1978 30.8513 8.9223C29.5127 7.6468 27.9261 6.672 26.1942 6.06104C26.8131 7.20724 27.2823 8.43101 27.5897 9.70121C29.0604 10.6672 30.2697 11.9938 31.1068 13.5596C31.9439 15.1253 32.3821 16.88 32.3812 18.663C32.3843 20.3618 31.9865 22.0364 31.2213 23.5456L30.9945 23.9953L31.1166 24.4859C31.5143 26.0767 31.9312 27.863 32.2364 29.1961C30.6389 28.8551 29.0457 28.4936 27.4571 28.1118L26.9966 28.0016L26.5727 28.2167C25.1703 28.9277 23.59 29.3276 21.9155 29.3276C20.1329 29.331 18.3792 28.8683 16.8222 27.9839C15.5793 28.302 14.3011 28.455 13.0197 28.4389V28.4389Z" fill="black"/>
</svg>
