<svg width="35" height="34" viewBox="0 0 35 34" fill="none" xmlns="http://www.w3.org/2000/svg">
<path d="M10.5031 34C9.54034 34 8.71643 33.6674 8.03139 33.0021C7.34519 32.3357 7.00208 31.535 7.00208 30.6C7.00208 29.665 7.34519 28.8643 8.03139 28.1979C8.71643 27.5326 9.54034 27.2 10.5031 27.2C11.4659 27.2 12.2898 27.5326 12.9749 28.1979C13.6611 28.8643 14.0042 29.665 14.0042 30.6C14.0042 31.535 13.6611 32.3357 12.9749 33.0021C12.2898 33.6674 11.4659 34 10.5031 34ZM28.0083 34C27.0455 34 26.2216 33.6674 25.5366 33.0021C24.8504 32.3357 24.5073 31.535 24.5073 30.6C24.5073 29.665 24.8504 28.8643 25.5366 28.1979C26.2216 27.5326 27.0455 27.2 28.0083 27.2C28.9711 27.2 29.7956 27.5326 30.4818 28.1979C31.1669 28.8643 31.5094 29.665 31.5094 30.6C31.5094 31.535 31.1669 32.3357 30.4818 33.0021C29.7956 33.6674 28.9711 34 28.0083 34ZM10.5031 25.5C9.19024 25.5 8.19827 24.9401 7.52724 23.8204C6.85621 22.7018 6.82703 21.59 7.43971 20.485L9.80292 16.32L3.50104 3.4H1.70676C1.21078 3.4 0.802322 3.2368 0.481393 2.9104C0.160464 2.58513 0 2.18167 0 1.7C0 1.21833 0.16805 0.8143 0.50415 0.4879C0.839083 0.162633 1.25454 0 1.75052 0H4.59512C4.91605 0 5.22239 0.0850002 5.51414 0.255C5.80589 0.425 6.02471 0.665833 6.17059 0.9775L7.35219 3.4H33.1724C33.9601 3.4 34.4999 3.68333 34.7916 4.25C35.0834 4.81667 35.0688 5.41167 34.7478 6.035L28.5335 16.915C28.2126 17.4817 27.7895 17.9208 27.2644 18.2325C26.7392 18.5442 26.1411 18.7 25.4701 18.7H12.4287L10.5031 22.1H29.8026C30.2986 22.1 30.7071 22.2626 31.028 22.5879C31.3489 22.9143 31.5094 23.3183 31.5094 23.8C31.5094 24.2817 31.3413 24.6851 31.0052 25.0104C30.6703 25.3368 30.2548 25.5 29.7589 25.5H10.5031Z" fill="black"/>
</svg>
