<svg width="35" height="33" viewBox="0 0 35 33" fill="none" xmlns="http://www.w3.org/2000/svg">
<path d="M15.75 11.55H19.25V8.25H15.75M17.5 29.7C9.7825 29.7 3.5 23.7765 3.5 16.5C3.5 9.2235 9.7825 3.3 17.5 3.3C25.2175 3.3 31.5 9.2235 31.5 16.5C31.5 23.7765 25.2175 29.7 17.5 29.7ZM17.5 0C15.2019 0 12.9262 0.426785 10.803 1.25599C8.67984 2.08519 6.75066 3.30057 5.12563 4.83274C1.84374 7.92709 0 12.1239 0 16.5C0 20.8761 1.84374 25.0729 5.12563 28.1673C6.75066 29.6994 8.67984 30.9148 10.803 31.744C12.9262 32.5732 15.2019 33 17.5 33C22.1413 33 26.5925 31.2616 29.8744 28.1673C33.1563 25.0729 35 20.8761 35 16.5C35 14.3332 34.5473 12.1876 33.6679 10.1857C32.7884 8.18385 31.4994 6.3649 29.8744 4.83274C28.2493 3.30057 26.3202 2.08519 24.197 1.25599C22.0738 0.426785 19.7981 0 17.5 0M15.75 24.75H19.25V14.85H15.75V24.75Z" fill="black"/>
</svg>
