<svg width="35" height="33" viewBox="0 0 35 33" fill="none" xmlns="http://www.w3.org/2000/svg">
<path d="M32.3077 8.73847H26.4183C27.2662 7.66638 27.6755 6.31174 27.5633 4.94884C27.4512 3.58594 26.826 2.31662 25.8144 1.3979C24.8027 0.479182 23.4802 -0.0202856 22.1145 0.0006314C20.7489 0.0215484 19.4423 0.561287 18.4591 1.51056C18.0626 1.91252 17.7381 2.37987 17.5 2.89212C17.2619 2.37987 16.9374 1.91252 16.5409 1.51056C15.5577 0.561287 14.2511 0.0215484 12.8855 0.0006314C11.5198 -0.0202856 10.1973 0.479182 9.18563 1.3979C8.17397 2.31662 7.54878 3.58594 7.43666 4.94884C7.32453 6.31174 7.73385 7.66638 8.58173 8.73847H2.69231C1.97826 8.73847 1.29346 9.02249 0.788559 9.52803C0.283653 10.0336 0 10.7192 0 11.4342V16.8256C0 17.5406 0.283653 18.2263 0.788559 18.7318C1.29346 19.2374 1.97826 19.5214 2.69231 19.5214V30.3043C2.69231 31.0192 2.97596 31.7049 3.48087 32.2104C3.98577 32.716 4.67057 33 5.38462 33H29.6154C30.3294 33 31.0142 32.716 31.5191 32.2104C32.024 31.7049 32.3077 31.0192 32.3077 30.3043V19.5214C33.0217 19.5214 33.7065 19.2374 34.2114 18.7318C34.7163 18.2263 35 17.5406 35 16.8256V11.4342C35 10.7192 34.7163 10.0336 34.2114 9.52803C33.7065 9.02249 33.0217 8.73847 32.3077 8.73847ZM20.3606 3.41442C20.6055 3.1438 20.9027 2.92583 21.2343 2.77372C21.5659 2.62161 21.9248 2.53854 22.2894 2.52956C22.654 2.52057 23.0167 2.58585 23.3553 2.72143C23.694 2.85702 24.0016 3.06008 24.2595 3.3183C24.5173 3.57652 24.7202 3.88451 24.8556 4.22359C24.991 4.56266 25.0562 4.92575 25.0472 5.29082C25.0382 5.65588 24.9553 6.01532 24.8033 6.34731C24.6514 6.6793 24.4337 6.97693 24.1635 7.22213C23.3389 8.06454 20.9327 8.51945 18.8966 8.68793C19.0649 6.64929 19.5192 4.23998 20.3606 3.41442V3.41442ZM10.8365 3.41442C11.3434 2.91435 12.0264 2.63404 12.738 2.63404C13.4496 2.63404 14.1326 2.91435 14.6394 3.41442C15.4808 4.23998 15.9351 6.64929 16.1034 8.68793C14.0673 8.51945 11.6611 8.06454 10.8365 7.22213C10.3371 6.71462 10.0572 6.03075 10.0572 5.31827C10.0572 4.60579 10.3371 3.92192 10.8365 3.41442V3.41442ZM2.69231 11.4342H16.1538V16.8256H2.69231V11.4342ZM5.38462 19.5214H16.1538V30.3043H5.38462V19.5214ZM29.6154 30.3043H18.8462V19.5214H29.6154V30.3043ZM32.3077 16.8256H18.8462V11.4342H32.3077V16.8256Z" fill="black"/>
</svg>
