<svg width="183" height="46" viewBox="0 0 183 46" fill="none" xmlns="http://www.w3.org/2000/svg">
<path d="M0.318176 34.9999L6.11363 0.0908203H41.0227L35.2273 34.9999H0.318176Z" fill="black"/>
<path d="M62.3764 8.81809L48.4503 34.9999H45.2116L40.0128 8.81809H43.1662L47.2571 30.9942H47.4787L58.9503 8.81809H62.3764Z" fill="black"/>
<path d="M67.5284 35.5454C65.0852 35.5454 63.0682 34.9772 61.4773 33.8408C59.8864 32.6931 58.7727 31.1079 58.1364 29.0851C57.5 27.051 57.4034 24.7101 57.8466 22.0624C58.2898 19.426 59.1648 17.0851 60.4716 15.0397C61.7784 12.9829 63.392 11.3749 65.3125 10.2158C67.2329 9.04537 69.3182 8.46014 71.5682 8.46014C72.9886 8.46014 74.3182 8.7215 75.5568 9.24423C76.7955 9.75559 77.8466 10.5454 78.7102 11.6135C79.5852 12.6704 80.1932 14.0056 80.5341 15.6192C80.875 17.2215 80.8636 19.1192 80.5 21.3124L80.2614 22.8124H59.8068L60.2329 20.1363H77.6023C77.8864 18.4545 77.8068 16.9431 77.3636 15.6022C76.9205 14.2613 76.1648 13.1988 75.0966 12.4147C74.0398 11.6192 72.7273 11.2215 71.1591 11.2215C69.5568 11.2215 68.0398 11.6704 66.6079 12.5681C65.1875 13.4658 63.9829 14.6363 62.9943 16.0795C62.017 17.5113 61.3864 19.0397 61.1023 20.6647L60.7614 22.676C60.3977 24.892 60.4432 26.7499 60.8977 28.2499C61.3523 29.7385 62.1761 30.8635 63.3693 31.6249C64.5625 32.3863 66.0909 32.767 67.9545 32.767C69.2045 32.767 70.3352 32.5738 71.3466 32.1874C72.358 31.801 73.2386 31.284 73.9886 30.6363C74.7386 29.9772 75.3409 29.2556 75.7954 28.4715L78.5057 29.409C77.9261 30.5113 77.108 31.5283 76.0511 32.4601C75.0057 33.392 73.7614 34.142 72.3182 34.7101C70.8864 35.267 69.2898 35.5454 67.5284 35.5454Z" fill="black"/>
<path d="M78.902 34.9999L83.2656 8.81809H86.2145L85.5327 12.8408H85.7543C86.4815 11.5226 87.5668 10.4601 89.0099 9.65332C90.4645 8.83514 92.0156 8.42605 93.6633 8.42605C93.9133 8.42605 94.1918 8.43173 94.4986 8.44309C94.8054 8.44309 95.0611 8.45446 95.2656 8.47719L94.7372 11.5624C94.6008 11.5397 94.3622 11.5056 94.0213 11.4601C93.6918 11.4147 93.3224 11.392 92.9133 11.392C91.5497 11.392 90.2883 11.6817 89.1293 12.2613C87.9815 12.8295 87.0156 13.6192 86.2315 14.6306C85.4588 15.642 84.9588 16.7954 84.7315 18.0908L81.9361 34.9999H78.902Z" fill="black"/>
<path d="M97.3026 35.5965C95.723 35.5965 94.331 35.2897 93.1264 34.676C91.9219 34.051 91.0241 33.1533 90.4332 31.9829C89.8537 30.801 89.6946 29.3692 89.956 27.6874C90.1832 26.392 90.615 25.301 91.2514 24.4147C91.8991 23.5283 92.7173 22.801 93.706 22.2329C94.6946 21.6533 95.831 21.1988 97.1151 20.8692C98.3991 20.5397 99.7969 20.2897 101.308 20.1192C102.786 19.9374 104.047 19.7783 105.092 19.642C106.138 19.5056 106.95 19.2897 107.53 18.9942C108.109 18.6988 108.456 18.2215 108.57 17.5624L108.672 16.9488C108.967 15.1647 108.695 13.7613 107.854 12.7385C107.013 11.7045 105.604 11.1874 103.626 11.1874C101.74 11.1874 100.104 11.6079 98.7173 12.4488C97.3423 13.2783 96.3196 14.2499 95.6491 15.3635L92.956 14.3238C93.7741 12.892 94.7798 11.7499 95.973 10.8976C97.1662 10.034 98.4446 9.41469 99.8082 9.03969C101.172 8.65332 102.518 8.46014 103.848 8.46014C104.848 8.46014 105.865 8.59082 106.899 8.85219C107.933 9.11355 108.859 9.56809 109.678 10.2158C110.507 10.8522 111.115 11.7442 111.501 12.892C111.899 14.0283 111.956 15.4715 111.672 17.2215L108.706 34.9999H105.672L106.371 30.8579H106.183C105.706 31.6306 105.047 32.3806 104.206 33.1079C103.376 33.8351 102.382 34.4317 101.223 34.8976C100.064 35.3635 98.7571 35.5965 97.3026 35.5965ZM98.0696 32.8181C99.6832 32.8181 101.143 32.4601 102.45 31.7442C103.768 31.0283 104.848 30.0795 105.689 28.8976C106.541 27.7045 107.087 26.392 107.325 24.9601L107.956 21.176C107.706 21.392 107.297 21.5851 106.729 21.7556C106.172 21.926 105.541 22.0795 104.837 22.2158C104.143 22.3408 103.445 22.4488 102.74 22.5397C102.047 22.6306 101.433 22.7101 100.899 22.7783C99.3878 22.9601 98.0696 23.2442 96.9446 23.6306C95.831 24.017 94.9389 24.551 94.2685 25.2329C93.598 25.9033 93.1775 26.767 93.0071 27.8238C92.7457 29.4147 93.0923 30.6476 94.0469 31.5226C95.0128 32.3863 96.3537 32.8181 98.0696 32.8181Z" fill="black"/>
<path d="M116.521 18.6363L113.811 34.9999H110.777L115.141 8.81809H118.089L117.408 12.926H117.68C118.499 11.5851 119.629 10.5113 121.072 9.70446C122.527 8.88628 124.214 8.47719 126.135 8.47719C127.885 8.47719 129.362 8.8465 130.567 9.58514C131.783 10.3124 132.646 11.3863 133.158 12.8067C133.68 14.2272 133.771 15.9715 133.43 18.0397L130.584 34.9999H127.55L130.345 18.2272C130.697 16.0908 130.385 14.3976 129.408 13.1476C128.442 11.8863 126.947 11.2556 124.925 11.2556C123.55 11.2556 122.271 11.551 121.089 12.142C119.919 12.7329 118.93 13.5851 118.124 14.6988C117.317 15.801 116.783 17.1135 116.521 18.6363Z" fill="black"/>
<path d="M140.926 45.3635C139.142 45.3635 137.614 45.1306 136.341 44.6647C135.068 44.2101 134.034 43.5851 133.239 42.7897C132.455 41.9942 131.881 41.1022 131.517 40.1135L134.278 38.4942C134.528 39.1533 134.909 39.801 135.42 40.4374C135.932 41.0738 136.653 41.5965 137.585 42.0056C138.517 42.426 139.739 42.6363 141.25 42.6363C143.557 42.6363 145.54 42.0511 147.199 40.8806C148.858 39.7215 149.892 37.9261 150.301 35.4942L151.222 29.5965H150.949C150.483 30.392 149.858 31.1874 149.074 31.9829C148.29 32.767 147.318 33.4204 146.159 33.9431C145.011 34.4658 143.653 34.7272 142.085 34.7272C139.994 34.7272 138.222 34.2101 136.767 33.176C135.312 32.142 134.284 30.6647 133.682 28.7442C133.08 26.8124 133.006 24.5113 133.46 21.8408C133.892 19.1931 134.722 16.8635 135.949 14.8522C137.187 12.8408 138.71 11.2726 140.517 10.1476C142.335 9.02264 144.324 8.46014 146.483 8.46014C148.085 8.46014 149.369 8.74423 150.335 9.31241C151.301 9.86923 152.034 10.5624 152.534 11.392C153.045 12.2215 153.415 13.0283 153.642 13.8124H153.949L154.767 8.81809H157.733L153.301 35.6817C152.926 37.8976 152.153 39.7215 150.983 41.1533C149.813 42.5851 148.358 43.642 146.619 44.3238C144.892 45.017 142.994 45.3635 140.926 45.3635ZM142.767 31.9488C144.449 31.9488 145.96 31.5454 147.301 30.7385C148.653 29.9204 149.784 28.7556 150.693 27.2442C151.614 25.7215 152.244 23.9033 152.585 21.7897C152.926 19.7442 152.909 17.9317 152.534 16.3522C152.17 14.7613 151.46 13.5113 150.403 12.6022C149.358 11.6817 147.983 11.2215 146.278 11.2215C144.517 11.2215 142.96 11.6931 141.608 12.6363C140.267 13.5795 139.159 14.8522 138.284 16.4545C137.42 18.0454 136.824 19.8238 136.494 21.7897C136.176 23.7897 136.187 25.5567 136.528 27.0908C136.881 28.6135 137.574 29.8067 138.608 30.6704C139.642 31.5226 141.028 31.9488 142.767 31.9488Z" fill="black"/>
<path d="M165.919 35.5454C163.476 35.5454 161.459 34.9772 159.868 33.8408C158.277 32.6931 157.163 31.1079 156.527 29.0851C155.891 27.051 155.794 24.7101 156.237 22.0624C156.68 19.426 157.555 17.0851 158.862 15.0397C160.169 12.9829 161.783 11.3749 163.703 10.2158C165.624 9.04537 167.709 8.46014 169.959 8.46014C171.379 8.46014 172.709 8.7215 173.947 9.24423C175.186 9.75559 176.237 10.5454 177.101 11.6135C177.976 12.6704 178.584 14.0056 178.925 15.6192C179.266 17.2215 179.254 19.1192 178.891 21.3124L178.652 22.8124H158.197L158.624 20.1363H175.993C176.277 18.4545 176.197 16.9431 175.754 15.6022C175.311 14.2613 174.555 13.1988 173.487 12.4147C172.43 11.6192 171.118 11.2215 169.55 11.2215C167.947 11.2215 166.43 11.6704 164.999 12.5681C163.578 13.4658 162.374 14.6363 161.385 16.0795C160.408 17.5113 159.777 19.0397 159.493 20.6647L159.152 22.676C158.788 24.892 158.834 26.7499 159.288 28.2499C159.743 29.7385 160.567 30.8635 161.76 31.6249C162.953 32.3863 164.482 32.767 166.345 32.767C167.595 32.767 168.726 32.5738 169.737 32.1874C170.749 31.801 171.629 31.284 172.379 30.6363C173.129 29.9772 173.732 29.2556 174.186 28.4715L176.896 29.409C176.317 30.5113 175.499 31.5283 174.442 32.4601C173.396 33.392 172.152 34.142 170.709 34.7101C169.277 35.267 167.68 35.5454 165.919 35.5454Z" fill="black"/>
<path d="M180.054 35.2556C179.372 35.2556 178.798 35.017 178.332 34.5397C177.878 34.0624 177.651 33.4829 177.651 32.801C177.651 32.1192 177.901 31.5454 178.401 31.0795C178.901 30.6135 179.486 30.3806 180.156 30.3806C180.827 30.3806 181.401 30.6192 181.878 31.0965C182.355 31.5738 182.582 32.142 182.56 32.801C182.548 33.2556 182.423 33.6704 182.185 34.0454C181.957 34.409 181.656 34.7045 181.281 34.9317C180.918 35.1476 180.509 35.2556 180.054 35.2556Z" fill="black"/>
</svg>
